<?xml version="1.0" standalone="no"?>
<!DOCTYPE svg PUBLIC "-//W3C//DTD SVG 20010904//EN"
 "http://www.w3.org/TR/2001/REC-SVG-20010904/DTD/svg10.dtd">
<svg version="1.0" xmlns="http://www.w3.org/2000/svg"
 width="188.000000pt" height="113.000000pt" viewBox="0 0 188.000000 113.000000"
 preserveAspectRatio="xMidYMid meet">
<metadata>
Created by potrace 1.10, written by Peter Selinger 2001-2011
</metadata>
<g transform="translate(0.000000,113.000000) scale(0.100000,-0.100000)"
fill="#000000" stroke="none">

<path d="M350 948 c-10 -10 -12 -75 -12 -239 l0 -227 80 -132 c44 -73 90 -142
100 -150 30 -25 154 -25 184 0 20 15 22 20 22 240 l0 224 -100 150 -100 150
-82 0 c-52 0 -85 -5 -92 -12z"/>

<path d="M800 948 c-10 -10 -12 -75 -12 -239 l0 -227 80 -132 c44 -73 90 -142
100 -150 30 -25 154 -25 184 0 20 15 22 20 22 240 l0 224 -100 150 -100 150
-82 0 c-52 0 -85 -5 -92 -12z"/>

<path d="M1250 948 c-10 -10 -12 -75 -12 -239 l0 -227 80 -132 c44 -73 90 -142
100 -150 30 -25 154 -25 184 0 20 15 22 20 22 240 l0 224 -100 150 -100 150
-82 0 c-52 0 -85 -5 -92 -12z"/>

</g>
</svg>
